<svg width="31" height="31" viewBox="0 0 31 31" fill="none" xmlns="http://www.w3.org/2000/svg">
<mask id="mask0_278_247" style="mask-type:luminance" maskUnits="userSpaceOnUse" x="0" y="0" width="31" height="31">
<path d="M0.578125 0.171875H30.5781V30.1719H0.578125V0.171875Z" fill="white"/>
</mask>
<g mask="url(#mask0_278_247)">
<path fill-rule="evenodd" clip-rule="evenodd" d="M15.5781 0.171875C7.29339 0.171875 0.578125 6.88714 0.578125 15.1719C0.578125 23.4559 7.29339 30.1719 15.5781 30.1719C23.8622 30.1719 30.5781 23.4559 30.5781 15.1719C30.5781 6.88714 23.8622 0.171875 15.5781 0.171875Z" fill="#E92B2B"/>
</g>
<path fill-rule="evenodd" clip-rule="evenodd" d="M28.5713 22.6719H2.58496C3.40109 24.083 4.44113 25.3491 5.65625 26.4219H25.5C26.7151 25.3491 27.7545 24.083 28.5713 22.6719Z" fill="#FBFBFB"/>
<mask id="mask1_278_247" style="mask-type:luminance" maskUnits="userSpaceOnUse" x="0" y="15" width="31" height="4">
<path d="M0.578125 15.0149H30.5781V18.9435H0.578125V15.0149Z" fill="white"/>
</mask>
<g mask="url(#mask1_278_247)">
<path fill-rule="evenodd" clip-rule="evenodd" d="M30.5781 15.1719H0.578125C0.578125 16.4665 0.742048 17.7228 1.05036 18.9219H30.1052C30.4135 17.7228 30.5781 16.4665 30.5781 15.1719Z" fill="#FBFBFB"/>
</g>
<path fill-rule="evenodd" clip-rule="evenodd" d="M28.5713 7.67188H2.58496C1.91393 8.83189 1.39356 10.091 1.05106 11.4219H30.1059C29.7634 10.091 29.243 8.83189 28.5713 7.67188Z" fill="#FBFBFB"/>
<mask id="mask2_278_247" style="mask-type:luminance" maskUnits="userSpaceOnUse" x="5" y="0" width="21" height="4">
<path d="M5.54534 0.171875H25.5453V3.9435H5.54534V0.171875Z" fill="white"/>
</mask>
<g mask="url(#mask2_278_247)">
<path fill-rule="evenodd" clip-rule="evenodd" d="M25.4986 3.92188H5.65485C8.29855 1.58789 11.7723 0.171875 15.5767 0.171875C19.3804 0.171875 22.8542 1.58789 25.4986 3.92188Z" fill="#FBFBFB"/>
</g>
<mask id="mask3_278_247" style="mask-type:luminance" maskUnits="userSpaceOnUse" x="0" y="0" width="15" height="16">
<path d="M0.578125 0.193604H14.1168V15.1936H0.578125V0.193604Z" fill="white"/>
</mask>
<g mask="url(#mask3_278_247)">
<path fill-rule="evenodd" clip-rule="evenodd" d="M14.0784 0.24585V15.1719H0.578125C0.578125 7.39359 6.49819 0.997803 14.0784 0.24585Z" fill="#2A2FAF"/>
</g>
<path fill-rule="evenodd" clip-rule="evenodd" d="M2.86537 7.20801H3.50572L2.62402 7.84835L2.96094 8.88491L2.21875 8.3457C2.41755 7.95647 2.63379 7.57701 2.86537 7.20801Z" fill="#FBFBFB"/>
<path fill-rule="evenodd" clip-rule="evenodd" d="M0.933876 11.9123C0.948524 11.844 0.964568 11.7763 0.980612 11.7079H1.74163L2.07855 10.6714L2.41546 11.7079H3.50503L2.62333 12.3483L2.96024 13.3848L2.07855 12.7445L1.19685 13.3848L1.53376 12.3483L0.933876 11.9123Z" fill="#FBFBFB"/>
<path fill-rule="evenodd" clip-rule="evenodd" d="M5.92132 3.69319C6.33845 3.34162 6.77511 3.01308 7.22921 2.70825H8.00488L7.12319 3.3486L7.4601 4.38515L6.57841 3.7448L5.69671 4.38515L5.92132 3.69319Z" fill="#FBFBFB"/>
<path d="M6.5791 6.17139L6.91602 7.20794H8.00558L7.12389 7.84898L7.4608 8.88553L6.5791 8.24449L5.69741 8.88553L6.03432 7.84898L5.15263 7.20794H6.24219L6.5791 6.17139Z" fill="#FBFBFB"/>
<path d="M6.5791 10.6714L6.91602 11.7079H8.00558L7.12389 12.3483L7.4608 13.3848L6.5791 12.7445L5.69741 13.3848L6.03432 12.3483L5.15263 11.7079H6.24219L6.5791 10.6714Z" fill="#FBFBFB"/>
<path d="M11.0783 1.67163L11.4152 2.70818H12.5047L11.623 3.34853L11.96 4.38508L11.0783 3.74473L10.1966 4.38508L10.5335 3.34853L9.65179 2.70818H10.7414L11.0783 1.67163Z" fill="#FBFBFB"/>
<path d="M11.0783 6.17139L11.4152 7.20794H12.5047L11.623 7.84898L11.96 8.88553L11.0783 8.24449L10.1966 8.88553L10.5335 7.84898L9.65179 7.20794H10.7414L11.0783 6.17139Z" fill="#FBFBFB"/>
<path d="M11.0783 10.6714L11.4152 11.7079H12.5047L11.623 12.3483L11.96 13.3848L11.0783 12.7445L10.1966 13.3848L10.5335 12.3483L9.65179 11.7079H10.7414L11.0783 10.6714Z" fill="#FBFBFB"/>
</svg>
