<svg width="29" height="30" viewBox="0 0 29 30" fill="none" xmlns="http://www.w3.org/2000/svg">
<path d="M11.2502 0.52079C11.4327 0.743424 11.5446 1.01556 11.5713 1.30223C11.598 1.5889 11.5384 1.87702 11.4002 2.12956C10.3155 4.11962 9.74938 6.35072 9.7539 8.61716C9.7539 16.1566 15.9002 22.2617 23.4754 22.2617C24.4654 22.2605 25.4235 22.1605 26.3498 21.9617C26.6331 21.9011 26.928 21.9249 27.198 22.0303C27.468 22.1356 27.7011 22.3178 27.8685 22.5542C28.0457 22.8004 28.1361 23.0983 28.1256 23.4014C28.1151 23.7044 28.0042 23.9954 27.8104 24.2286C26.3397 26.035 24.4845 27.4905 22.3799 28.4889C20.2754 29.4873 17.9746 30.0035 15.6452 30C7.00135 30 0 23.0361 0 14.456C0 7.9984 3.96381 2.45957 9.60764 0.112033C9.88868 -0.00740579 10.201 -0.0321211 10.4973 0.0416226C10.7936 0.115366 11.0579 0.283561 11.2502 0.52079Z" fill="#7C8DA1"/>
</svg>
