<svg width="30" height="30" viewBox="0 0 30 30" fill="none" xmlns="http://www.w3.org/2000/svg">
<mask id="mask0_278_246" style="mask-type:luminance" maskUnits="userSpaceOnUse" x="0" y="0" width="30" height="30">
<path d="M0 0H30V30H0V0Z" fill="white"/>
</mask>
<g mask="url(#mask0_278_246)">
<path d="M30 15C30 23.284 23.284 30 15 30C6.71526 30 0 23.284 0 15C0 6.71596 6.71526 0 15 0C23.284 0 30 6.71596 30 15Z" fill="#009846"/>
</g>
<path d="M1.3651 14.7705L14.9512 5.99194L28.6014 14.7496L14.9798 23.6022L1.3651 14.7705Z" fill="#FFDF00"/>
<path d="M20.7499 14.7446C20.7499 17.9624 18.1731 20.5705 14.9944 20.5705C11.8164 20.5705 9.23898 17.9624 9.23898 14.7446C9.23898 11.5268 11.8164 8.9187 14.9944 8.9187C18.1731 8.9187 20.7499 11.5268 20.7499 14.7446Z" fill="#002279"/>
<path d="M14.4615 12.4527C18.3977 13.2911 20.685 15.6216 20.685 15.6216C20.6243 16.0757 20.4722 16.5445 20.4722 16.5445C17.9422 14.1219 14.781 13.4676 14.781 13.4676C11.9657 12.7819 9.42383 13.2758 9.42383 13.2758C9.50405 12.9472 9.73145 12.3815 9.73145 12.3815C9.73145 12.3815 11.6504 12.0216 14.4615 12.4527Z" fill="white"/>
<path d="M10.2902 13.4585L10.3453 13.6308H10.5246L10.3795 13.7375L10.4353 13.9098L10.2902 13.8031L10.1451 13.9098L10.2002 13.7375L10.0551 13.6308H10.2344L10.2902 13.4585Z" fill="white"/>
<path d="M12.7902 14.7795L12.8383 14.9302H12.9946L12.8683 15.0223L12.9164 15.173L12.7902 15.0802L12.6632 15.173L12.7121 15.0223L12.5858 14.9302H12.7421L12.7902 14.7795Z" fill="white"/>
<path d="M11.3693 15.6565L11.3986 15.7486H11.4934L11.4167 15.8044L11.446 15.8964L11.3693 15.8393L11.2919 15.8964L11.3219 15.8044L11.2444 15.7486H11.34L11.3693 15.6565Z" fill="white"/>
<path d="M10.7994 15.8943L10.8608 16.0861H11.0603L10.8991 16.2047L10.9605 16.3972L10.7994 16.2779L10.6376 16.3972L10.6996 16.2047L10.5378 16.0861H10.7373L10.7994 15.8943Z" fill="white"/>
<path d="M10.0851 16.4829L10.1304 16.6245H10.2776L10.1583 16.7124L10.2044 16.854L10.0851 16.7668L9.96582 16.854L10.0112 16.7124L9.89188 16.6245H10.0398L10.0851 16.4829Z" fill="white"/>
<path d="M11.9978 16.5381L12.0431 16.6804H12.1903L12.071 16.7676L12.1171 16.9092L11.9978 16.822L11.8785 16.9092L11.9238 16.7676L11.8046 16.6804H11.9517L11.9978 16.5381Z" fill="white"/>
<path d="M11.8227 17.1226L11.868 17.2649H12.0159L11.8966 17.3527L11.942 17.4943L11.8227 17.4065L11.7034 17.4943L11.7487 17.3527L11.6302 17.2649H11.7773L11.8227 17.1226Z" fill="white"/>
<path d="M12.6737 17.6243L12.7246 17.7826H12.8892L12.756 17.881L12.8069 18.0393L12.6737 17.941L12.5405 18.0393L12.5914 17.881L12.4581 17.7826H12.6228L12.6737 17.6243Z" fill="white"/>
<path d="M14.9763 17.1548L15.0272 17.3131H15.1918L15.0586 17.4115L15.1095 17.5698L14.9763 17.4722L14.8431 17.5698L14.894 17.4115L14.7607 17.3131H14.9254L14.9763 17.1548Z" fill="white"/>
<path d="M15.6522 16.0085L15.6996 16.1557H15.8524L15.7289 16.2464L15.7757 16.3929L15.6522 16.3022L15.5294 16.3929L15.5762 16.2464L15.4527 16.1557H15.6055L15.6522 16.0085Z" fill="white"/>
<path d="M14.9763 15.4778L15.023 15.6243H15.1758L15.0523 15.7156L15.0997 15.8621L14.9763 15.7714L14.8528 15.8621L14.8996 15.7156L14.7768 15.6243H14.9289L14.9763 15.4778Z" fill="white"/>
<path d="M14.3952 16.0122L14.4371 16.1426H14.5717L14.4622 16.2229L14.5047 16.3526L14.3952 16.2724L14.2857 16.3526L14.3276 16.2229L14.2181 16.1426H14.3534L14.3952 16.0122Z" fill="white"/>
<path d="M14.684 16.4788L14.7147 16.5757H14.8152L14.7342 16.635L14.7649 16.732L14.684 16.672L14.6024 16.732L14.6338 16.635L14.5522 16.5757H14.6526L14.684 16.4788Z" fill="white"/>
<path d="M16.5472 14.3345L16.5778 14.4314H16.6783L16.5967 14.4907L16.6281 14.5877L16.5472 14.5277L16.4655 14.5877L16.4969 14.4907L16.416 14.4314H16.5158L16.5472 14.3345Z" fill="white"/>
<path d="M16.7676 12.6814L16.8248 12.86H17.0103L16.8604 12.9702L16.9176 13.1494L16.7676 13.0385L16.6169 13.1494L16.6741 12.9702L16.5241 12.86H16.7097L16.7676 12.6814Z" fill="white"/>
<path d="M19.0088 16.55L19.066 16.7286H19.2522L19.1023 16.8395L19.1588 17.0181L19.0088 16.9079L18.8588 17.0181L18.916 16.8395L18.766 16.7286H18.9516L19.0088 16.55Z" fill="white"/>
<path d="M18.8874 17.5579L18.9355 17.7071H19.0904L18.9648 17.7992L19.013 17.9492L18.8874 17.8564L18.7619 17.9492L18.8093 17.7992L18.6837 17.7071H18.8393L18.8874 17.5579Z" fill="white"/>
<path d="M19.2446 17.1116L19.2927 17.2608H19.4475L19.322 17.3536L19.3701 17.5029L19.2446 17.4108L19.119 17.5029L19.1671 17.3536L19.0409 17.2608H19.1964L19.2446 17.1116Z" fill="white"/>
<path d="M19.8068 16.6726L19.8437 16.787H19.9623L19.8661 16.8575L19.9023 16.9719L19.8068 16.9014L19.7105 16.9719L19.7475 16.8575L19.6512 16.787H19.7698L19.8068 16.6726Z" fill="white"/>
<path d="M18.4312 17.9116L18.4682 18.026H18.5868L18.4905 18.0965L18.5275 18.2102L18.4312 18.1397L18.3357 18.2102L18.3719 18.0965L18.2764 18.026H18.3943L18.4312 17.9116Z" fill="white"/>
<path d="M17.8613 18.3433L17.9032 18.4744H18.0392L17.9297 18.5553L17.9715 18.6865L17.8613 18.6055L17.7518 18.6865L17.7937 18.5553L17.6835 18.4744H17.8195L17.8613 18.3433Z" fill="white"/>
<path d="M17.8237 17.8035L17.8585 17.9116H17.9708L17.8802 17.9792L17.9143 18.0874L17.8237 18.0204L17.7323 18.0874L17.7672 17.9792L17.6758 17.9116H17.7888L17.8237 17.8035Z" fill="white"/>
<path d="M17.2001 18.0105L17.2349 18.1193H17.3479L17.2566 18.1863L17.2914 18.2951L17.2001 18.2281L17.1094 18.2951L17.1436 18.1863L17.0529 18.1193H17.1659L17.2001 18.0105Z" fill="white"/>
<path d="M16.2507 17.8572L16.2856 17.966H16.3979L16.3072 18.033L16.3414 18.1418L16.2507 18.0741L16.1593 18.1418L16.1942 18.033L16.1028 17.966H16.2158L16.2507 17.8572Z" fill="white"/>
<path d="M17.8585 18.981L17.8934 19.0898H18.0064L17.9143 19.1567L17.9499 19.2656L17.8585 19.1986L17.7672 19.2656L17.802 19.1567L17.7107 19.0898H17.8237L17.8585 18.981Z" fill="white"/>
<path d="M16.7111 18.4968L16.7536 18.6287H16.8903L16.7794 18.7103L16.822 18.8421L16.7111 18.7612L16.6002 18.8421L16.6427 18.7103L16.5311 18.6287H16.6685L16.7111 18.4968Z" fill="white"/>
<path d="M14.9937 19.2278L15.0133 19.2885H15.0774L15.0258 19.3268L15.0453 19.3882L14.9937 19.3506L14.9421 19.3882L14.9616 19.3268L14.91 19.2885H14.9742L14.9937 19.2278Z" fill="white"/>
<path d="M9.81585 12.7903C9.84026 12.8928 9.92466 12.9744 10.0342 12.9584C10.1451 12.9423 10.189 12.8433 10.1674 12.7331C10.1486 12.6375 10.0698 12.5447 9.94838 12.5622C9.82771 12.5803 9.79074 12.6849 9.81585 12.7903ZM10.2427 12.7212C10.2741 12.8872 10.1786 12.9891 10.0412 13.0093C9.89955 13.0302 9.77609 12.9493 9.73981 12.8042C9.70215 12.6521 9.78934 12.5336 9.94071 12.5112C10.0949 12.4889 10.2148 12.5775 10.2427 12.7212Z" fill="#009B2D"/>
<path d="M10.6515 12.666C10.6759 12.6632 10.7003 12.6611 10.7247 12.6597C10.8015 12.6527 10.8447 12.6122 10.8371 12.5571C10.8287 12.4944 10.7715 12.4706 10.6948 12.4769C10.6592 12.4797 10.6348 12.4846 10.6236 12.4888C10.6327 12.5481 10.6417 12.6067 10.6515 12.666ZM10.5434 12.4518C10.5797 12.442 10.632 12.433 10.6822 12.4288C10.7603 12.4218 10.8126 12.4309 10.8517 12.4553C10.8831 12.4748 10.9033 12.5069 10.9082 12.5446C10.9166 12.6088 10.8761 12.6541 10.8203 12.6764C10.8203 12.6771 10.8203 12.6778 10.8203 12.6785C10.865 12.6876 10.895 12.7211 10.9152 12.7706C10.9417 12.8369 10.9612 12.8829 10.9752 12.901C10.9508 12.9024 10.9263 12.9038 10.9026 12.9059C10.8922 12.8927 10.874 12.8522 10.8496 12.7929C10.8245 12.7266 10.791 12.7036 10.7261 12.7071C10.7038 12.7092 10.6815 12.7113 10.6585 12.7134C10.6696 12.7831 10.6808 12.8536 10.692 12.9234C10.6689 12.9254 10.6452 12.9275 10.6215 12.9303C10.5957 12.7706 10.5699 12.6109 10.5434 12.4518Z" fill="#009B2D"/>
<path d="M11.3609 12.8306C11.379 12.8327 11.4056 12.8327 11.4328 12.832C11.5827 12.8278 11.6595 12.7518 11.6511 12.62C11.6441 12.5056 11.5639 12.433 11.4097 12.4372C11.3721 12.4379 11.3442 12.4421 11.3246 12.4463C11.3372 12.5746 11.3491 12.7023 11.3609 12.8306ZM11.2479 12.403C11.2912 12.3954 11.3442 12.3891 11.4021 12.387C11.5074 12.3842 11.5841 12.4037 11.6357 12.4435C11.6888 12.4825 11.7208 12.5383 11.7257 12.6179C11.7306 12.6967 11.7062 12.7623 11.6581 12.8076C11.6106 12.8536 11.5283 12.8794 11.4237 12.8829C11.3735 12.8843 11.3316 12.8836 11.2953 12.8815C11.28 12.7218 11.264 12.5628 11.2479 12.403Z" fill="#009B2D"/>
<path d="M12.3521 12.6563C12.281 12.6535 12.2091 12.6507 12.138 12.6486C12.1387 12.7072 12.1401 12.7658 12.1415 12.8244C12.2203 12.8265 12.2984 12.8293 12.3772 12.8335C12.3772 12.8509 12.3772 12.8683 12.3772 12.8858C12.2761 12.8809 12.1742 12.8774 12.0731 12.8753C12.0682 12.7128 12.0633 12.5503 12.0592 12.3884C12.161 12.3905 12.2628 12.394 12.3647 12.3989C12.3647 12.4163 12.3647 12.4338 12.3647 12.4512C12.2872 12.4477 12.2105 12.4449 12.1331 12.4428C12.1338 12.4938 12.1352 12.5454 12.1366 12.597C12.2084 12.5984 12.2803 12.6012 12.3521 12.6047C12.3521 12.6221 12.3521 12.6395 12.3521 12.6563Z" fill="#009B2D"/>
<path d="M13.1773 12.7351C13.1787 12.6674 13.1794 12.5851 13.185 12.5251C13.1843 12.5251 13.1829 12.5251 13.1822 12.5251C13.1592 12.5795 13.132 12.6374 13.0999 12.7016C13.0622 12.7762 13.0253 12.8516 12.989 12.9269C12.9715 12.9248 12.9541 12.9234 12.936 12.922C12.9116 12.8418 12.8857 12.7623 12.8592 12.6828C12.8362 12.6123 12.8167 12.5481 12.8027 12.4888C12.802 12.4888 12.8013 12.4888 12.8006 12.4888C12.7972 12.5488 12.7902 12.6304 12.7825 12.7023C12.7748 12.7713 12.7672 12.8404 12.7602 12.9095C12.7379 12.9081 12.7155 12.9067 12.6939 12.9046C12.7107 12.7434 12.7288 12.5823 12.7469 12.4219C12.7783 12.424 12.8097 12.4261 12.8404 12.4289C12.869 12.5098 12.8976 12.5907 12.9248 12.6723C12.9443 12.7337 12.9604 12.7888 12.9715 12.8404C12.9722 12.8404 12.9729 12.8404 12.9736 12.8404C12.9904 12.793 13.0127 12.7414 13.0406 12.6828C13.0783 12.6081 13.1166 12.5335 13.155 12.4588C13.1864 12.4623 13.2171 12.4658 13.2478 12.4693C13.2471 12.6318 13.245 12.7944 13.2436 12.9569C13.2206 12.9541 13.1982 12.9513 13.1759 12.9492C13.1766 12.8774 13.1773 12.8062 13.1773 12.7351Z" fill="#009B2D"/>
<path d="M14.3087 12.8977C14.239 12.883 14.1685 12.8698 14.0988 12.8565C14.089 12.9137 14.0799 12.9716 14.0709 13.0288C14.1483 13.0428 14.225 13.0581 14.3018 13.0735C14.299 13.0909 14.2955 13.1083 14.2927 13.1251C14.1936 13.1048 14.0939 13.086 13.9941 13.0679C14.0186 12.9088 14.043 12.7491 14.0674 12.5894C14.1671 12.6075 14.2669 12.627 14.3666 12.6473C14.3638 12.664 14.3604 12.6814 14.3576 12.6989C14.2822 12.6835 14.2062 12.6682 14.1309 12.6542C14.1225 12.7051 14.1148 12.7554 14.1064 12.8056C14.1776 12.8188 14.248 12.8321 14.3185 12.8467C14.315 12.8635 14.3122 12.8802 14.3087 12.8977Z" fill="#009B2D"/>
<path d="M15.1437 13.0769C15.1583 13.0846 15.1765 13.0916 15.1995 13.0978C15.2818 13.1208 15.3425 13.0999 15.3606 13.0364C15.3781 12.9751 15.3362 12.9304 15.2588 12.9088C15.2281 12.9004 15.2044 12.8962 15.1911 12.8955C15.1758 12.9562 15.1597 13.0169 15.1437 13.0769ZM15.1325 12.8328C15.1674 12.8369 15.2134 12.8446 15.2699 12.8607C15.339 12.8795 15.3857 12.9088 15.4109 12.9423C15.4353 12.9737 15.4422 13.012 15.4311 13.0532C15.4185 13.0957 15.3948 13.1243 15.3613 13.1411C15.3153 13.1634 15.2518 13.1641 15.1848 13.1453C15.1646 13.1397 15.1458 13.1341 15.1311 13.1264C15.1144 13.1885 15.0984 13.2513 15.0816 13.3134C15.0593 13.3078 15.037 13.3015 15.0146 13.2952C15.0537 13.1411 15.0928 12.9869 15.1325 12.8328Z" fill="#009B2D"/>
<path d="M15.8008 13.2623C15.8245 13.27 15.8475 13.2777 15.8705 13.2854C15.9431 13.3098 16.001 13.2916 16.0191 13.2393C16.0393 13.1807 15.9989 13.1375 15.9263 13.1124C15.8929 13.1012 15.8684 13.0956 15.8566 13.0949C15.8378 13.1507 15.8196 13.2065 15.8008 13.2623ZM15.8008 13.0308C15.8378 13.0363 15.8894 13.0489 15.9368 13.0656C16.0107 13.0901 16.0547 13.118 16.0784 13.1556C16.0979 13.1856 16.1021 13.2219 16.0896 13.2568C16.0679 13.3168 16.01 13.3412 15.9494 13.3384C15.9494 13.3391 15.9494 13.3398 15.9494 13.3405C15.9849 13.3663 15.9975 13.4074 15.9933 13.4591C15.9877 13.5281 15.9835 13.5762 15.9877 13.5979C15.9654 13.5895 15.9424 13.5818 15.9201 13.5735C15.9159 13.5581 15.9187 13.5149 15.9235 13.4528C15.9305 13.3844 15.911 13.3509 15.8503 13.3286C15.8287 13.3216 15.8078 13.314 15.7868 13.3077C15.7645 13.3733 15.7429 13.4395 15.7213 13.5058C15.6989 13.4988 15.6766 13.4911 15.6543 13.4842C15.7038 13.3328 15.752 13.1821 15.8008 13.0308Z" fill="#009B2D"/>
<path d="M16.4188 13.5037C16.3804 13.5993 16.4056 13.7081 16.5074 13.7493C16.6099 13.7904 16.7048 13.7318 16.7487 13.6314C16.7871 13.5435 16.7739 13.4291 16.6609 13.3831C16.5486 13.3377 16.4579 13.4047 16.4188 13.5037ZM16.8192 13.6586C16.7515 13.81 16.612 13.8462 16.4844 13.7946C16.3525 13.7409 16.2939 13.614 16.347 13.4772C16.4021 13.3342 16.543 13.2805 16.6839 13.337C16.8276 13.3956 16.8778 13.5282 16.8192 13.6586Z" fill="#009B2D"/>
<path d="M17.4051 14.1776C17.3716 14.1727 17.3089 14.1594 17.2426 14.128C17.1694 14.0918 17.1163 14.0464 17.0877 13.9836C17.0626 13.9278 17.064 13.8574 17.0961 13.7897C17.1589 13.6593 17.3103 13.6119 17.4819 13.6949C17.5405 13.7235 17.5809 13.7569 17.5984 13.7772C17.5851 13.7897 17.5718 13.8016 17.5586 13.8141C17.537 13.7904 17.5077 13.7653 17.4567 13.7409C17.3326 13.6809 17.2189 13.7095 17.1666 13.8183C17.1129 13.9292 17.1568 14.029 17.2705 14.0834C17.3124 14.1036 17.3431 14.1127 17.3612 14.1134C17.3828 14.0708 17.4051 14.0283 17.4275 13.9857C17.394 13.969 17.3605 13.9523 17.327 13.9362C17.3347 13.9216 17.3417 13.9062 17.3493 13.8916C17.4044 13.9181 17.4588 13.9453 17.5139 13.9725C17.477 14.0408 17.4414 14.1092 17.4051 14.1776Z" fill="#009B2D"/>
<path d="M17.8948 14.1672C17.9164 14.1791 17.9381 14.1909 17.9597 14.2028C18.0266 14.2397 18.088 14.2321 18.1166 14.1846C18.1494 14.1316 18.1173 14.0821 18.0497 14.0444C18.019 14.0277 17.996 14.0179 17.9841 14.0151C17.9541 14.0654 17.9248 14.117 17.8948 14.1672ZM17.9415 13.9419C17.9771 13.9538 18.026 13.9761 18.0699 14.0005C18.139 14.0382 18.1766 14.0737 18.1934 14.1142C18.2066 14.1463 18.2031 14.1825 18.1836 14.2146C18.1501 14.269 18.0873 14.2823 18.0273 14.2683C18.0273 14.269 18.0266 14.2697 18.0266 14.2704C18.0573 14.3018 18.0615 14.3444 18.0462 14.3939C18.0266 14.4602 18.0134 14.5062 18.0134 14.5278C17.9925 14.516 17.9715 14.5041 17.9506 14.4923C17.9499 14.4762 17.9611 14.4344 17.9785 14.3751C17.9987 14.3102 17.9862 14.2739 17.9304 14.2404C17.9109 14.23 17.8913 14.2188 17.8711 14.2084C17.8362 14.269 17.8006 14.329 17.7658 14.3897C17.7455 14.3786 17.7246 14.3674 17.7044 14.3569C17.7832 14.2181 17.8627 14.0807 17.9415 13.9419Z" fill="#009B2D"/>
<path d="M18.66 14.6526C18.5993 14.6142 18.5379 14.5758 18.4766 14.5382C18.4445 14.587 18.4117 14.6351 18.3796 14.6839C18.4466 14.7251 18.5135 14.767 18.5798 14.8095C18.57 14.8241 18.5596 14.8381 18.5498 14.8527C18.464 14.7976 18.3775 14.7439 18.2903 14.6909C18.3796 14.5563 18.4682 14.421 18.5575 14.2856C18.6447 14.3387 18.7319 14.3931 18.8184 14.4482C18.8079 14.4628 18.7974 14.4768 18.7877 14.4914C18.7228 14.4496 18.6572 14.4084 18.591 14.368C18.5624 14.4105 18.5338 14.4524 18.5059 14.4949C18.5672 14.5333 18.6286 14.5716 18.6893 14.61C18.6796 14.6247 18.6698 14.6386 18.66 14.6526Z" fill="#009B2D"/>
<path d="M18.8658 14.97C18.8811 15.0013 18.9111 15.039 18.9509 15.0669C19.0102 15.1081 19.066 15.106 19.096 15.0669C19.1239 15.0313 19.1155 14.9937 19.0702 14.9302C19.0123 14.8563 18.99 14.7921 19.0311 14.737C19.0765 14.6763 19.1713 14.6721 19.262 14.7356C19.3094 14.7691 19.3373 14.8025 19.3499 14.827C19.3338 14.8367 19.3178 14.8465 19.3018 14.8556C19.292 14.8381 19.2704 14.8046 19.2285 14.7753C19.165 14.7314 19.1162 14.746 19.096 14.7726C19.0688 14.8088 19.0834 14.8465 19.1309 14.9107C19.1888 14.9902 19.2027 15.0495 19.1581 15.1053C19.1113 15.1639 19.0206 15.1785 18.9153 15.1053C18.8721 15.0753 18.833 15.032 18.8191 15.002C18.8351 14.9909 18.8504 14.9804 18.8658 14.97Z" fill="#009B2D"/>
<path d="M19.3903 15.346C19.4043 15.3787 19.4315 15.4178 19.4706 15.4478C19.5278 15.4917 19.5836 15.4931 19.6164 15.4555C19.6463 15.422 19.6408 15.3836 19.5975 15.3181C19.5445 15.2413 19.5257 15.1758 19.5703 15.1234C19.6184 15.0648 19.714 15.0662 19.8019 15.1346C19.8479 15.1702 19.873 15.2058 19.8856 15.2302C19.8682 15.2392 19.8521 15.2476 19.8354 15.2567C19.8263 15.2385 19.8061 15.2037 19.7656 15.1723C19.7042 15.1241 19.6547 15.1374 19.6338 15.1625C19.6038 15.1967 19.6164 15.2344 19.6603 15.302C19.714 15.3843 19.7245 15.4443 19.6763 15.498C19.6261 15.5538 19.534 15.5629 19.4329 15.4841C19.391 15.452 19.3541 15.4066 19.3422 15.376C19.3583 15.3662 19.3743 15.3557 19.3903 15.346Z" fill="#009B2D"/>
<path d="M20.0509 15.6661C19.9784 15.7422 19.9623 15.8503 20.046 15.9242C20.1304 15.9982 20.2441 15.9765 20.3237 15.8991C20.3941 15.8314 20.4234 15.7198 20.3306 15.6389C20.2386 15.558 20.1249 15.5887 20.0509 15.6661ZM20.383 15.9486C20.2602 16.0651 20.1116 16.0498 20.007 15.9577C19.8982 15.8628 19.8891 15.7254 19.9909 15.6173C20.0977 15.5043 20.2539 15.5029 20.3697 15.604C20.4876 15.708 20.4883 15.8482 20.383 15.9486Z" fill="#009B2D"/>
</svg>
