<svg width="90" height="90" viewBox="0 0 90 90" fill="none" xmlns="http://www.w3.org/2000/svg">
<mask id="mask0_234_148" style="mask-type:luminance" maskUnits="userSpaceOnUse" x="0" y="0" width="38" height="39">
<path d="M0 0H37.7574V38.0357H0V0Z" fill="white"/>
</mask>
<g mask="url(#mask0_234_148)">
<path fill-rule="evenodd" clip-rule="evenodd" d="M37.6632 0L0 37.6653V8.6342C0 8.3517 0.0146487 8.06919 0.0439453 7.78878C0.0732424 7.50837 0.115095 7.22795 0.169503 6.95173C0.226004 6.6755 0.295061 6.40136 0.376674 6.13141C0.460379 5.86146 0.554548 5.5957 0.663364 5.33412C0.772182 5.07254 0.893554 4.81933 1.02748 4.57031C1.15932 4.32129 1.3058 4.07854 1.46275 3.84417C1.6197 3.60979 1.78711 3.38169 1.96707 3.16406C2.14704 2.94643 2.33538 2.73716 2.53627 2.53627C2.73507 2.33747 2.94433 2.14704 3.16197 1.96917C3.38169 1.7892 3.6077 1.62179 3.84207 1.46484C4.07645 1.3058 4.31919 1.16141 4.56822 1.02748C4.81724 0.893554 5.07045 0.774274 5.33203 0.665457C5.59361 0.55664 5.85937 0.460379 6.12932 0.378767C6.39927 0.295061 6.67131 0.226005 6.94963 0.171596C7.22586 0.115095 7.50418 0.0732424 7.78669 0.0439453C8.0671 0.0146487 8.3496 0 8.63211 0H37.6632Z" fill="#FFC61A"/>
</g>
<mask id="mask1_234_148" style="mask-type:luminance" maskUnits="userSpaceOnUse" x="0" y="53" width="26" height="37">
<path d="M0 53.5713H25.4359V89.9998H0V53.5713Z" fill="white"/>
</mask>
<g mask="url(#mask1_234_148)">
<path fill-rule="evenodd" clip-rule="evenodd" d="M17.1826 89.9996H8.63839C8.35588 89.9996 8.07338 89.9849 7.79087 89.9556C7.51046 89.9284 7.23214 89.8845 6.95382 89.8301C6.67759 89.7736 6.40345 89.7045 6.13351 89.6229C5.86356 89.5392 5.59779 89.445 5.33621 89.3362C5.07463 89.2274 4.82142 89.106 4.5724 88.9721C4.32338 88.8402 4.08063 88.6938 3.84626 88.5368C3.60979 88.3799 3.38379 88.2124 3.16615 88.0325C2.94643 87.8525 2.73716 87.6642 2.53836 87.4633C2.33747 87.2645 2.14913 87.0552 1.96917 86.8355C1.7892 86.6179 1.62179 86.3919 1.46484 86.1575C1.3079 85.921 1.16141 85.6804 1.02748 85.4313C0.893554 85.1823 0.774274 84.927 0.665457 84.6654C0.55664 84.4059 0.460379 84.1402 0.378766 83.8681C0.295061 83.5982 0.226004 83.3262 0.169503 83.0478C0.115095 82.7716 0.0732424 82.4912 0.0439453 82.2108C0.0146487 81.9304 0 81.6479 0 81.3654V72.5533L1.38742 71.1638L18.8316 53.7217L25.1953 60.0854L17.1826 89.9996Z" fill="#FFC61A"/>
</g>
<mask id="mask2_234_148" style="mask-type:luminance" maskUnits="userSpaceOnUse" x="42" y="43" width="48" height="47">
<path d="M42.5789 43.3926H90V89.9997H42.5789V43.3926Z" fill="white"/>
</mask>
<g mask="url(#mask2_234_148)">
<path fill-rule="evenodd" clip-rule="evenodd" d="M89.9998 43.604V81.3656C89.9998 81.6481 89.9851 81.9306 89.9558 82.211C89.9265 82.4914 89.8847 82.7718 89.8303 83.048C89.7738 83.3263 89.7047 83.5984 89.621 83.8683C89.5394 84.1404 89.4431 84.4061 89.3343 84.6656C89.2276 84.9272 89.1062 85.1825 88.9723 85.4315C88.8383 85.6806 88.694 85.9212 88.5349 86.1577C88.378 86.3921 88.2106 86.6181 88.0306 86.8357C87.8506 87.0554 87.6623 87.2647 87.4614 87.4635C87.2626 87.6644 87.0533 87.8527 86.8357 88.0327C86.616 88.2126 86.39 88.3801 86.1556 88.537C85.9191 88.694 85.6785 88.8404 85.4294 88.9723C85.1804 89.1062 84.9251 89.2276 84.6635 89.3364C84.402 89.4452 84.1362 89.5394 83.8663 89.6231C83.5963 89.7047 83.3222 89.7737 83.0459 89.8302C82.7697 89.8847 82.4893 89.9286 82.2089 89.9558C81.9264 89.9851 81.646 89.9998 81.3635 89.9998H42.7251L47.3498 72.7314C47.9358 72.8339 48.5259 72.9218 49.116 72.9971C49.7061 73.0704 50.2983 73.131 50.8926 73.175C51.4869 73.221 52.0813 73.2524 52.6777 73.2692C53.272 73.2859 53.8663 73.288 54.4627 73.2754C55.0591 73.2629 55.6534 73.2378 56.2477 73.1959C56.842 73.1562 57.4342 73.0997 58.0243 73.0306C58.6165 72.9615 59.2067 72.8778 59.7926 72.7795C60.3806 72.6832 60.9666 72.5702 61.5483 72.4447C62.1301 72.3191 62.7076 72.1789 63.2831 72.024C63.8586 71.8713 64.4299 71.7018 64.997 71.5218C65.5641 71.3398 66.127 71.1451 66.6836 70.9359C67.2424 70.7266 67.7948 70.5048 68.341 70.2704C68.8893 70.0339 69.4292 69.787 69.9649 69.5254C70.5006 69.2639 71.028 68.9897 71.5511 68.703C72.0722 68.4163 72.587 68.1171 73.0934 67.8053C73.6019 67.4935 74.102 67.1691 74.5938 66.8322C75.0856 66.4974 75.569 66.15 76.0419 65.7901C76.5169 65.4323 76.9836 65.0619 77.4419 64.6789C77.8981 64.298 78.3459 63.9046 78.7832 63.5008C79.2227 63.099 79.6496 62.6846 80.0681 62.2619C80.4867 61.8371 80.8947 61.4039 81.2923 60.9603C81.6899 60.5167 82.075 60.0626 82.4516 59.6001C82.8262 59.1376 83.1903 58.6668 83.544 58.1876C83.8955 57.7083 84.2366 57.2208 84.5652 56.7227C84.8958 56.2268 85.2118 55.7224 85.5173 55.2118C85.8208 54.7012 86.1137 54.1823 86.3942 53.657C86.6746 53.1297 86.9403 52.5981 87.1956 52.0603C87.4488 51.5204 87.6895 50.9763 87.9176 50.426C88.1457 49.8756 88.3591 49.3211 88.5621 48.7602C88.763 48.1994 88.9493 47.6344 89.1229 47.0652C89.2966 46.496 89.4578 45.9226 89.6043 45.3451C89.7486 44.7675 89.8826 44.1878 89.9998 43.604Z" fill="#A435F0"/>
</g>
<path fill-rule="evenodd" clip-rule="evenodd" d="M62.444 27.5562C62.7307 27.8408 63.0006 28.1401 63.258 28.4519C63.5133 28.7637 63.754 29.088 63.9779 29.4249C64.2018 29.7598 64.4111 30.1071 64.6015 30.4629C64.7919 30.8186 64.9635 31.1848 65.1184 31.5573C65.2732 31.9298 65.4093 32.3107 65.5264 32.6978C65.6436 33.0829 65.742 33.4742 65.8194 33.8718C65.8989 34.2673 65.9575 34.667 65.9973 35.0688C66.037 35.4706 66.058 35.8744 66.058 36.2783C66.058 36.6822 66.037 37.084 65.9973 37.4858C65.9575 37.8896 65.8989 38.2872 65.8194 38.6848C65.742 39.0803 65.6436 39.4717 65.5264 39.8588C65.4093 40.2459 65.2732 40.6247 65.1184 40.9972C64.9635 41.3718 64.7919 41.7359 64.6015 42.0916C64.4111 42.4495 64.2039 42.7948 63.9779 43.1317C63.754 43.4665 63.5133 43.7909 63.258 44.1027C63.0006 44.4145 62.7307 44.7137 62.444 45.0004C62.1594 45.285 61.8602 45.557 61.5484 45.8123C61.2345 46.0697 60.9122 46.3104 60.5753 46.5343C60.2384 46.7582 59.8931 46.9654 59.5373 47.1558C59.1816 47.3462 58.8154 47.5199 58.4429 47.6748C58.0704 47.8296 57.6895 47.9657 57.3024 48.0828C56.9174 48.2 56.5239 48.2963 56.1284 48.3758C55.7329 48.4553 55.3332 48.5139 54.9315 48.5537C54.5297 48.5935 54.1258 48.6123 53.7219 48.6123C53.318 48.6123 52.9162 48.5935 52.5124 48.5537C52.1106 48.5139 51.713 48.4553 51.3154 48.3758C50.9199 48.2984 50.5286 48.2 50.1414 48.0828C49.7543 47.9657 49.3755 47.8296 49.0009 47.6748C48.6284 47.5199 48.2643 47.3462 47.9065 47.1558C47.5507 46.9654 47.2055 46.7582 46.8685 46.5343C46.5337 46.3104 46.2094 46.0697 45.8976 45.8123C45.5837 45.557 45.2865 45.2871 44.9998 45.0004L36.2756 36.2762L53.7198 18.832L62.444 27.5562Z" fill="#A435F0"/>
<mask id="mask3_234_148" style="mask-type:luminance" maskUnits="userSpaceOnUse" x="69" y="0" width="22" height="30">
<path d="M69.3647 0H90.0002V29.4643H69.3647V0Z" fill="white"/>
</mask>
<g mask="url(#mask3_234_148)">
<path fill-rule="evenodd" clip-rule="evenodd" d="M81.3637 0C81.6462 0 81.9287 0.0146487 82.2091 0.0439453C82.4896 0.0711494 82.77 0.115095 83.0462 0.169503C83.3224 0.226004 83.5966 0.295061 83.8665 0.376674C84.1386 0.460379 84.4043 0.554548 84.6638 0.663364C84.9254 0.772181 85.1807 0.893554 85.4297 1.02748C85.6787 1.16141 85.9215 1.3058 86.1559 1.46275C86.3902 1.6197 86.6162 1.7892 86.836 1.96707C87.0536 2.14704 87.2629 2.33747 87.4637 2.53627C87.6625 2.73716 87.853 2.94643 88.0308 3.16406C88.2108 3.38169 88.3803 3.60979 88.5373 3.84417C88.6942 4.07854 88.8386 4.32129 88.9725 4.57031C89.1065 4.81933 89.2278 5.07463 89.3367 5.33412C89.4455 5.5957 89.5396 5.86146 89.6233 6.13141C89.705 6.40136 89.774 6.6755 89.8305 6.95382C89.8849 7.23004 89.9268 7.50836 89.9561 7.79087C89.9854 8.07128 90 8.35379 90 8.63629V28.9495C89.6443 27.1728 89.1588 25.4339 88.5456 23.7284C87.9325 22.025 87.198 20.3739 86.3421 18.7793C85.4862 17.1826 84.5173 15.6592 83.4354 14.2069C82.3535 12.7546 81.1712 11.3881 79.8884 10.1116L69.781 0H81.3637Z" fill="#A435F0"/>
</g>
</svg>
